<?xml version="1.0" encoding="utf-8"?>
<!-- Generator: Adobe Illustrator 28.3.0, SVG Export Plug-In . SVG Version: 6.00 Build 0)  -->
<svg version="1.1" id="Layer_1" xmlns="http://www.w3.org/2000/svg" xmlns:xlink="http://www.w3.org/1999/xlink" x="0px" y="0px"
	 viewBox="0 0 18 18" style="enable-background:new 0 0 18 18;" xml:space="preserve">
<style type="text/css">
	.st0{fill:#FF13DC;fill-opacity:0;}
	.st1{fill:#FFFFFF;}
</style>
<rect id="Canvas" class="st0" width="18" height="18"/>
<path class="st1" d="M16.5,12h-1c-0.3,0-0.5,0.2-0.5,0.5V15H3v-2.5C3,12.2,2.8,12,2.5,12h-1C1.2,12,1,12.2,1,12.5v4
	C1,16.8,1.2,17,1.5,17h15c0.3,0,0.5-0.2,0.5-0.5v-4C17,12.2,16.8,12,16.5,12z"/>
<path class="st1" d="M8.8,13.4c0.1,0.1,0.3,0.1,0.4,0l3.7-3.8C13,9.6,13,9.5,13,9.4C13,9.2,12.8,9,12.6,9H10V1.5C10,1.2,9.8,1,9.5,1
	h-1C8.2,1,8,1.2,8,1.5V9H5.4C5.2,9,5,9.2,5,9.4c0,0.1,0,0.2,0.1,0.3L8.8,13.4z"/>
</svg>
