<?xml version="1.0" encoding="UTF-8"?>
<svg id="Layer_1" data-name="Layer 1" xmlns="http://www.w3.org/2000/svg" width="100" height="100" viewBox="0 0 100 100">
  <defs>
    <style>
      .cls-1 {
        fill: #80dfff;
        stroke: #80dfff;
      }

      .cls-1, .cls-2 {
        stroke-miterlimit: 10;
        stroke-width: 3.289px;
      }

      .cls-2 {
        fill: #ff5100;
        stroke: #ff5100;
      }
    </style>
  </defs>
  <path class="cls-1" d="M82.975,64.449c-.467-1.178-1.257-2.288-2.365-3.328-1.144-1.005-2.626-1.932-4.445-2.783-1.82-.848-4.082-1.638-6.785-2.365-4.195-1.144-7.877-2.53-11.049-4.16-3.171-1.629-5.763-3.413-7.773-5.355-2.011-1.941-3.527-4.089-4.549-6.447-1.023-2.357-1.534-4.921-1.534-7.695,0-3.189.676-6.084,2.028-8.684s3.224-4.817,5.615-6.655c2.392-1.837,5.216-3.25,8.474-4.237,3.258-.988,6.793-1.482,10.607-1.482,3.952,0,7.566.572,10.841,1.716,3.276,1.144,6.092,2.739,8.449,4.783,2.357,2.08,4.193,4.542,5.511,7.383,1.317,2.843,1.976,5.962,1.976,9.359h-14.246c-.07-1.698-.373-3.258-.91-4.679-.539-1.421-1.327-2.652-2.367-3.692-1.075-1.005-2.4-1.794-3.977-2.365-1.578-.572-3.424-.858-5.538-.858-1.942,0-3.666.234-5.173.702-1.508.468-2.783,1.119-3.822,1.951-1.04.867-1.828,1.881-2.365,3.041-.537,1.162-.806,2.418-.806,3.77,0,1.422.355,2.704,1.066,3.848.709,1.144,1.742,2.167,3.093,3.068,1.352.936,2.989,1.785,4.914,2.547,1.923.763,4.098,1.474,6.525,2.132,2.6.728,5.077,1.611,7.435,2.651,2.357,1.04,4.524,2.236,6.5,3.588,2.981,2.219,5.355,4.801,7.124,7.747,1.767,2.947,2.651,6.343,2.651,10.191,0,3.328-.668,6.283-2.002,8.865-1.334,2.582-3.181,4.757-5.538,6.525-2.358,1.803-5.165,3.163-8.423,4.082-3.259.917-6.811,1.377-10.658,1.377-3.779,0-7.513-.564-11.204-1.689-3.692-1.126-6.908-2.781-9.645-4.966-2.6-2.149-4.654-4.678-6.161-7.59-1.508-2.912-2.262-6.326-2.262-10.243h14.35c.069,2.288.468,4.246,1.196,5.876.728,1.629,1.749,2.963,3.067,4.003,1.282,1.04,2.834,1.803,4.654,2.288,1.819.486,3.821.728,6.005.728,1.941,0,3.666-.225,5.173-.676,1.508-.45,2.781-1.074,3.821-1.872,1.04-.797,1.837-1.758,2.392-2.885.554-1.125.832-2.365.832-3.717s-.233-2.617-.702-3.795Z"/>
  <path class="cls-2" d="M21.597,71.5l-4.526,16H2.577L26.82,13.5h12.96l23.786,74h-14.495l-4.474-16h-23ZM40.851,59.5l-7.577-27.256-7.78,27.256h15.357Z"/>
</svg>